<svg xmlns="http://www.w3.org/2000/svg" width="100px" height="100px" viewBox="0 0 100 100">
	<g transform="translate(0,-952.36218)">
		<path d="m 55.009373,1004.3325 43.157718,0 0,3.8439 -43.157718,0 z m 13.977233,-5.98859 0,1.84069 8.346237,0 0,-1.84069 z m -11.107864,0 0,1.84069 6.382223,0 0,-1.84069 z m 38.28897,-1.23963 -9.245041,1.55743 0.305796,1.81579 9.245106,-1.55733 z m -4.691927,-27.92898 -9.245111,1.55767 0.305794,1.81618 9.24511,-1.55767 z m -33.597043,-1.61898 0,1.84065 6.382223,0 0,-1.84065 z m 34.449793,-0.3391 5.428212,33.96718 -11.381235,1.8185 -5.427352,-33.96711 z m -35.67755,-2.99979 8.836416,0 0,38.78547 -8.836416,0 z m 12.335621,-0.17945 0,1.84065 8.346237,0 0,-1.84065 z m -1.105046,-3.25774 10.55567,0 0,42.22266 -10.55567,0 z m -19.458847,49.18956 c 9.549333,3.9927 17.141679,13.0265 20.577287,24.4638 -32.677692,12.3947 -63.1764699,0 -63.1764699,0 3.3836511,-11.2654 10.7976409,-20.2017 20.1417729,-24.2839 2.241606,3.8493 6.400515,6.4416 11.174515,6.4416 4.849032,0 9.069467,-2.672 11.282895,-6.6215 z M 37.411766,983.37028 c 7.142474,0 12.933752,5.79012 12.933752,12.9325 0,7.14482 -5.791278,12.93502 -12.933752,12.93502 -7.142643,0 -12.933753,-5.7902 -12.933753,-12.93502 0,-7.14238 5.79111,-12.9325 12.933753,-12.9325 z"></path>
    </g>
</svg>
